<svg width="39" height="26" viewBox="0 0 39 26" fill="none" xmlns="http://www.w3.org/2000/svg">
<path d="M1.76475 0.188232H36.7648C36.9881 0.192523 37.2084 0.240837 37.4131 0.330322C37.6177 0.419807 37.8028 0.548678 37.9576 0.709717C38.1124 0.870756 38.2339 1.06075 38.3153 1.2688C38.3966 1.47685 38.4363 1.69878 38.4317 1.92212V23.5964C38.4363 23.8198 38.3966 24.0417 38.3153 24.2498C38.2339 24.4578 38.1124 24.6478 37.9576 24.8088C37.8028 24.9699 37.6177 25.0987 37.4131 25.1882C37.2084 25.2777 36.9881 25.326 36.7648 25.3303H1.76475C1.54141 25.326 1.32112 25.2777 1.11644 25.1882C0.911755 25.0987 0.726697 24.9699 0.57188 24.8088C0.417064 24.6478 0.295446 24.4578 0.214092 24.2498C0.132738 24.0417 0.09325 23.8198 0.097759 23.5964V1.92212C0.09325 1.69878 0.132738 1.47685 0.214092 1.2688C0.295446 1.06075 0.417064 0.870756 0.57188 0.709717C0.726697 0.548678 0.911755 0.419807 1.11644 0.330322C1.32112 0.240837 1.54141 0.192523 1.76475 0.188232Z" fill="url(#paint0_linear_2023_86)"/>
<path d="M30.0697 17.4143L29.8177 16.1194H27.0837L26.6348 17.4143H24.3927L27.5997 9.34937C27.6743 9.14937 27.811 8.97835 27.9896 8.86157C28.1683 8.7448 28.3797 8.68848 28.5928 8.70044H30.3218L32.0437 17.4153L30.0697 17.4143ZM28.8337 11.0701L27.7037 14.3313H29.4697L28.8337 11.0701ZM21.5468 11.1843C21.5468 12.1363 24.5468 12.3401 24.5468 14.5291C24.5468 16.6371 22.3317 17.4124 20.8647 17.4124C20.0309 17.4261 19.2036 17.2639 18.4368 16.9363L18.7567 15.0461C19.6367 15.7661 22.3058 15.9714 22.3058 14.8284C22.3058 13.6854 19.3308 13.6582 19.3308 11.4822C19.3308 9.17018 21.8648 8.69409 22.9308 8.69409C23.5911 8.71102 24.2442 8.83515 24.8647 9.06128L24.5577 10.8704C23.6397 10.3584 21.5448 10.2362 21.5448 11.1882L21.5468 11.1843ZM14.9628 17.4143L16.3068 8.69897H18.4578L17.1138 17.4143H14.9628ZM9.80579 17.4143L7.9397 9.85229C8.26935 10.0582 8.58386 10.2875 8.88074 10.5383C9.77775 11.3059 10.4603 12.2928 10.8617 13.4031L11.1047 14.6941L13.1558 8.70044H15.4707L12.0487 17.4153L9.80579 17.4143ZM6.01172 8.93823L5.91174 8.90845L6.01172 8.93823ZM5.79175 8.87329L5.74377 8.86011L5.79175 8.87329ZM6.3208 9.04321L6.19275 8.99829L6.3208 9.04321ZM7.81177 9.76831C7.7451 9.72698 7.67836 9.68717 7.61169 9.64917C7.67569 9.69317 7.74169 9.73119 7.80969 9.77319L7.81177 9.76831ZM7.29773 9.47827C7.23973 9.44827 7.1798 9.41643 7.1228 9.38843C7.1778 9.42143 7.23678 9.45315 7.29578 9.48315L7.29773 9.47827ZM6.7627 9.22144L6.64478 9.17017L6.7627 9.22144Z" fill="#494CA3"/>
<path d="M10.8588 13.4072L10.1348 9.48925C10.0967 9.2531 9.96995 9.0404 9.7804 8.89452C9.59084 8.74864 9.35276 8.6809 9.11475 8.70458H5.72473L5.68469 8.85155C6.86175 9.16894 7.95257 9.74641 8.87671 10.5415C9.77423 11.3092 10.4572 12.2965 10.8588 13.4072Z" fill="#FFC000"/>
<defs>
<linearGradient id="paint0_linear_2023_86" x1="19.2648" y1="25.3303" x2="19.2648" y2="0.188232" gradientUnits="userSpaceOnUse">
<stop stop-color="#E59703"/>
<stop offset="0.231" stop-color="#E59703"/>
<stop offset="0.234" stop-color="white"/>
<stop offset="0.761" stop-color="white"/>
<stop offset="0.766" stop-color="#5457BB"/>
<stop offset="1" stop-color="#5457BB"/>
</linearGradient>
</defs>
</svg>
