<svg width="12" height="17" viewBox="0 0 12 17" fill="none" xmlns="http://www.w3.org/2000/svg">
<path d="M0.911137 8.89229H3.18581V16.1527C3.18581 16.2215 3.22109 16.2875 3.28387 16.3362C3.34665 16.3848 3.43179 16.4122 3.52057 16.4122H7.37846C7.46725 16.4122 7.55239 16.3848 7.61517 16.3362C7.67795 16.2875 7.71322 16.2215 7.71322 16.1527V8.92632H10.3295C10.4115 8.92622 10.4907 8.90277 10.5519 8.86043C10.6131 8.81809 10.6521 8.75981 10.6615 8.69664L11.0594 6.02343C11.0648 5.98712 11.0603 5.95034 11.046 5.91548C11.0318 5.88063 11.0083 5.8485 10.9769 5.8212C10.9456 5.79389 10.9072 5.77202 10.8641 5.75703C10.8211 5.74204 10.7745 5.73426 10.7274 5.7342H7.7091V4.05946C7.7091 3.55437 8.06033 3.29811 8.75179 3.29811H10.7219C10.8107 3.29811 10.8958 3.27078 10.9586 3.22212C11.0214 3.17346 11.0566 3.10747 11.0566 3.03866V0.585554C11.0574 0.517106 11.0232 0.451206 10.9615 0.402211C10.8998 0.353215 10.8157 0.325094 10.7274 0.323975L8.00957 0.323975H7.88471C6.6332 0.327398 5.42523 0.680379 4.48231 1.31819C4.03736 1.61956 3.69597 2.00188 3.48883 2.4308C3.2817 2.85972 3.21529 3.32181 3.29557 3.77555V5.73527H0.907013C0.818231 5.73527 0.733089 5.7626 0.670311 5.81126C0.607532 5.85991 0.572266 5.92591 0.572266 5.99472V8.63284C0.572262 8.66718 0.58105 8.70119 0.59813 8.73287C0.61521 8.76456 0.640244 8.79331 0.671766 8.81744C0.703288 8.84157 0.740674 8.86062 0.781764 8.87347C0.822855 8.88632 0.866832 8.89272 0.911137 8.89229Z" fill="white"/>
</svg>
