<svg width="23" height="13" viewBox="0 0 23 13" fill="none" xmlns="http://www.w3.org/2000/svg">
<path d="M22.9945 1.53887C22.1555 1.7942 21.2682 1.96395 20.3598 2.04289C21.3175 1.64683 22.0336 1.01955 22.3724 0.279893C21.4768 0.650321 20.4971 0.911398 19.4755 1.05187C18.8486 0.583961 18.0343 0.258474 17.1384 0.11776C16.2426 -0.0229546 15.3069 0.0276176 14.4528 0.262897C13.5988 0.498176 12.8661 0.907269 12.35 1.43695C11.8339 1.96662 11.5584 2.59237 11.5593 3.23275C11.5559 3.4772 11.5917 3.72115 11.666 3.96006C9.84646 3.89776 8.06626 3.56836 6.44177 2.99338C4.81728 2.4184 3.38507 1.61079 2.23879 0.623349C1.6501 1.32503 1.46776 2.15699 1.72904 2.94928C1.99031 3.74156 2.67547 4.43439 3.64456 4.88622C2.92076 4.87282 2.21219 4.73825 1.57859 4.49385V4.52895C1.57957 5.26506 1.94387 5.97849 2.61026 6.54934C3.27664 7.1202 4.2045 7.51367 5.23787 7.66363C4.84642 7.73604 4.4429 7.77179 4.03793 7.76996C3.7473 7.77365 3.45694 7.75547 3.1719 7.71573C3.46709 8.34837 4.03603 8.9017 4.8005 9.29966C5.56497 9.69761 6.48743 9.92064 7.44106 9.93808C5.82396 10.8193 3.83051 11.2976 1.77833 11.297C1.41246 11.2988 1.0468 11.2842 0.683594 11.2534C2.77421 12.1929 5.2102 12.69 7.69721 12.6847C9.40982 12.693 11.1077 12.4639 12.6923 12.0108C14.2769 11.5576 15.7166 10.8894 16.9278 10.0449C18.139 9.20044 19.0975 8.19655 19.7476 7.09155C20.3978 5.98656 20.7266 4.80248 20.7151 3.6081C20.7151 3.46668 20.7151 3.33058 20.6983 3.19553C21.6019 2.74537 22.3801 2.18394 22.9945 1.53887Z" fill="white"/>
</svg>
